<?xml version="1.0" encoding="UTF-8"?>
<svg xmlns="http://www.w3.org/2000/svg" width="647" height="496" viewBox="0 0 647 496" shape-rendering="geometricPrecision">
<title>MOTIV logo</title>
<desc>Vectorized MOTIV logo with transparent background, soft gold icon and off-white name.</desc>
<path d="M187.0,35.0 L187.0,304.0 L207.0,303.0 L207.0,167.0 L342.0,250.0 L342.0,304.0 L459.0,304.0 L459.0,35.0 Z M206.0,55.0 L439.0,54.0 L440.0,283.0 L363.0,284.0 L361.0,238.0 L206.0,141.0 Z" fill="#C6A35D" fill-rule="evenodd"/>
<path d="M185,406.5 a59.5,53.5 0 1,0 119,0 a59.5,53.5 0 1,0 -119,0 Z M205.5,406.5 a39,37.5 0 1,0 78,0 a39,37.5 0 1,0 -78,0 Z" fill="#EDE8DB" fill-rule="evenodd"/>
<path d="M35.0,354.0 L35.0,458.0 L54.0,458.0 L55.0,385.0 L91.0,449.0 L95.0,447.0 L129.0,385.0 L130.0,458.0 L149.0,458.0 L149.0,354.0 L127.0,354.0 L92.0,415.0 L59.0,354.0 Z" fill="#EDE8DB" fill-rule="evenodd"/>
<path d="M326.0,354.0 L326.0,370.0 L360.0,370.0 L361.0,371.0 L361.0,458.0 L382.0,458.0 L382.0,371.0 L383.0,370.0 L417.0,370.0 L417.0,354.0 Z" fill="#EDE8DB" fill-rule="evenodd"/>
<path d="M448.0,354.0 L448.0,458.0 L469.0,458.0 L469.0,354.0 Z" fill="#EDE8DB" fill-rule="evenodd"/>
<path d="M502.0,354.0 L505.0,364.0 L548.0,458.0 L568.0,458.0 L591.0,402.0 L610.0,360.0 L611.0,354.0 L589.0,354.0 L587.0,362.0 L585.0,364.0 L558.0,430.0 L556.0,429.0 L523.0,354.0 Z" fill="#EDE8DB" fill-rule="evenodd"/>
</svg>
