<?xml version="1.0" encoding="UTF-8"?>
<svg xmlns="http://www.w3.org/2000/svg" width="647" height="496" viewBox="0 0 647 496">
<title>MOTIV logo</title>
<desc>Vectorized MOTIV logo with transparent background, soft gold icon and off-white name.</desc>
<path d="M187.0,35.0 L187.0,304.0 L207.0,303.0 L207.0,167.0 L342.0,250.0 L342.0,304.0 L459.0,304.0 L459.0,35.0 Z M206.0,55.0 L439.0,54.0 L440.0,283.0 L363.0,284.0 L361.0,238.0 L206.0,141.0 Z" fill="#C6A35D" fill-rule="evenodd"/>
<path d="M225.0,355.0 L219.0,357.0 L205.0,365.0 L196.0,374.0 L190.0,383.0 L185.0,397.0 L185.0,416.0 L186.0,417.0 L186.0,421.0 L188.0,427.0 L194.0,438.0 L205.0,449.0 L220.0,457.0 L230.0,459.0 L231.0,460.0 L256.0,460.0 L257.0,459.0 L270.0,456.0 L284.0,448.0 L294.0,438.0 L300.0,427.0 L303.0,418.0 L303.0,414.0 L304.0,413.0 L304.0,402.0 L303.0,401.0 L302.0,392.0 L300.0,389.0 L300.0,387.0 L294.0,376.0 L283.0,365.0 L277.0,361.0 L264.0,355.0 L251.0,354.0 L250.0,353.0 L237.0,353.0 L236.0,354.0 Z M234.0,370.0 L241.0,370.0 L242.0,369.0 L246.0,369.0 L247.0,370.0 L254.0,370.0 L255.0,371.0 L260.0,372.0 L266.0,375.0 L268.0,377.0 L269.0,377.0 L278.0,386.0 L281.0,392.0 L281.0,394.0 L282.0,395.0 L282.0,398.0 L283.0,399.0 L283.0,415.0 L282.0,416.0 L282.0,419.0 L280.0,422.0 L280.0,424.0 L279.0,426.0 L272.0,434.0 L271.0,434.0 L268.0,437.0 L267.0,437.0 L265.0,439.0 L261.0,441.0 L259.0,441.0 L255.0,443.0 L251.0,443.0 L250.0,444.0 L237.0,444.0 L236.0,443.0 L232.0,443.0 L231.0,442.0 L229.0,442.0 L221.0,438.0 L214.0,432.0 L214.0,431.0 L209.0,425.0 L208.0,423.0 L208.0,421.0 L206.0,418.0 L206.0,415.0 L205.0,414.0 L205.0,399.0 L206.0,398.0 L206.0,395.0 L207.0,394.0 L207.0,392.0 L210.0,386.0 L220.0,376.0 L223.0,375.0 L227.0,372.0 L229.0,372.0 L230.0,371.0 L233.0,371.0 Z" fill="#EDE8DB" fill-rule="evenodd"/>
<path d="M35.0,354.0 L35.0,458.0 L54.0,458.0 L55.0,385.0 L91.0,449.0 L95.0,447.0 L129.0,385.0 L130.0,458.0 L149.0,458.0 L149.0,354.0 L127.0,354.0 L92.0,415.0 L59.0,354.0 Z" fill="#EDE8DB" fill-rule="evenodd"/>
<path d="M326.0,354.0 L326.0,370.0 L360.0,370.0 L361.0,371.0 L361.0,458.0 L382.0,458.0 L382.0,371.0 L383.0,370.0 L417.0,370.0 L417.0,354.0 Z" fill="#EDE8DB" fill-rule="evenodd"/>
<path d="M448.0,354.0 L448.0,458.0 L469.0,458.0 L469.0,354.0 Z" fill="#EDE8DB" fill-rule="evenodd"/>
<path d="M502.0,354.0 L505.0,364.0 L548.0,458.0 L568.0,458.0 L591.0,402.0 L610.0,360.0 L611.0,354.0 L589.0,354.0 L587.0,362.0 L585.0,364.0 L558.0,430.0 L556.0,429.0 L523.0,354.0 Z" fill="#EDE8DB" fill-rule="evenodd"/>
</svg>